<svg width="213" height="209" viewBox="0 0 213 209" fill="none" xmlns="http://www.w3.org/2000/svg">
<g clip-path="url(#clip0_24_493)">
<path d="M213 0H25L213 188V0Z" fill="#D9FF00"/>
<path d="M136.664 77.616H152.36V84H126.584V77.616H130.088V70.848H127.16V65.04H130.088V60.24C130.088 52.944 135.512 49.728 140.648 49.728C145.544 49.728 149.288 52.368 151.064 56.736L145.352 60C144.536 57.504 143.24 56.16 140.792 56.16C138.536 56.16 136.664 57.552 136.664 60.48V65.04H146.408V70.848H136.664V77.616ZM151.715 50.4H173.411V56.016L162.035 84H155.027L166.067 56.736H151.715V50.4ZM184.809 62.64C190.953 62.64 196.281 66.432 196.281 73.632C196.281 80.832 190.617 84.672 184.281 84.672C179.049 84.672 174.489 82.368 172.569 77.472L178.233 74.16C179.049 76.752 180.921 78.192 184.281 78.192C187.737 78.192 189.657 76.368 189.657 73.632C189.657 70.944 187.737 69.072 184.473 69.072H174.297L175.641 50.4H194.697V56.592H181.785L181.353 62.64H184.809Z" fill="#343434"/>
<path d="M107.38 31C107.327 31 107.279 30.984 107.236 30.952C107.204 30.9093 107.188 30.8613 107.188 30.808V19.992C107.188 19.9387 107.204 19.896 107.236 19.864C107.279 19.8213 107.327 19.8 107.38 19.8H109.252C109.306 19.8 109.348 19.8213 109.38 19.864C109.423 19.896 109.444 19.9387 109.444 19.992V30.808C109.444 30.8613 109.423 30.9093 109.38 30.952C109.348 30.984 109.306 31 109.252 31H107.38ZM117.077 19.992C117.077 19.9387 117.093 19.896 117.125 19.864C117.168 19.8213 117.216 19.8 117.269 19.8H119.125C119.178 19.8 119.221 19.8213 119.253 19.864C119.296 19.896 119.317 19.9387 119.317 19.992V30.808C119.317 30.8613 119.296 30.9093 119.253 30.952C119.221 30.984 119.178 31 119.125 31H117.013C116.906 31 116.837 30.9467 116.805 30.84L114.821 24.648C114.81 24.616 114.789 24.6053 114.757 24.616C114.736 24.616 114.725 24.632 114.725 24.664L114.741 30.808C114.741 30.8613 114.72 30.9093 114.677 30.952C114.645 30.984 114.602 31 114.549 31H112.693C112.64 31 112.592 30.984 112.549 30.952C112.517 30.9093 112.501 30.8613 112.501 30.808V19.992C112.501 19.9387 112.517 19.896 112.549 19.864C112.592 19.8213 112.64 19.8 112.693 19.8H114.789C114.896 19.8 114.965 19.8533 114.997 19.96L116.997 26.152C117.008 26.184 117.024 26.2 117.045 26.2C117.077 26.1893 117.093 26.168 117.093 26.136L117.077 19.992ZM128.553 19.8C128.606 19.8 128.649 19.8213 128.681 19.864C128.723 19.896 128.745 19.9387 128.745 19.992V21.544C128.745 21.5973 128.723 21.6453 128.681 21.688C128.649 21.72 128.606 21.736 128.553 21.736H126.553C126.499 21.736 126.473 21.7627 126.473 21.816V30.808C126.473 30.8613 126.451 30.9093 126.409 30.952C126.377 30.984 126.334 31 126.281 31H124.409C124.355 31 124.307 30.984 124.265 30.952C124.233 30.9093 124.217 30.8613 124.217 30.808V21.816C124.217 21.7627 124.19 21.736 124.137 21.736H122.217C122.163 21.736 122.115 21.72 122.073 21.688C122.041 21.6453 122.025 21.5973 122.025 21.544V19.992C122.025 19.9387 122.041 19.896 122.073 19.864C122.115 19.8213 122.163 19.8 122.217 19.8H128.553ZM135.87 31C135.753 31 135.678 30.9467 135.646 30.84L134.414 26.424C134.393 26.3813 134.366 26.36 134.334 26.36H133.79C133.737 26.36 133.71 26.3867 133.71 26.44V30.808C133.71 30.8613 133.689 30.9093 133.646 30.952C133.614 30.984 133.571 31 133.518 31H131.646C131.593 31 131.545 30.984 131.502 30.952C131.47 30.9093 131.454 30.8613 131.454 30.808V19.992C131.454 19.9387 131.47 19.896 131.502 19.864C131.545 19.8213 131.593 19.8 131.646 19.8H134.878C135.465 19.8 135.987 19.944 136.446 20.232C136.905 20.5093 137.257 20.904 137.502 21.416C137.758 21.928 137.886 22.5147 137.886 23.176C137.886 23.8053 137.763 24.36 137.518 24.84C137.283 25.32 136.953 25.6933 136.526 25.96C136.505 25.9707 136.489 25.9867 136.478 26.008C136.467 26.0187 136.467 26.0347 136.478 26.056L137.95 30.776L137.966 30.84C137.966 30.9467 137.907 31 137.79 31H135.87ZM133.79 21.736C133.737 21.736 133.71 21.7627 133.71 21.816V24.552C133.71 24.6053 133.737 24.632 133.79 24.632H134.51C134.841 24.632 135.107 24.504 135.31 24.248C135.523 23.9813 135.63 23.6293 135.63 23.192C135.63 22.744 135.523 22.392 135.31 22.136C135.107 21.8693 134.841 21.736 134.51 21.736H133.79ZM143.682 31.128C142.701 31.128 141.917 30.84 141.33 30.264C140.744 29.688 140.45 28.92 140.45 27.96V22.84C140.45 21.88 140.744 21.112 141.33 20.536C141.917 19.96 142.701 19.672 143.682 19.672C144.664 19.672 145.448 19.96 146.034 20.536C146.632 21.112 146.93 21.88 146.93 22.84V27.96C146.93 28.92 146.632 29.688 146.034 30.264C145.448 30.84 144.664 31.128 143.682 31.128ZM143.682 29.192C143.981 29.192 144.221 29.0907 144.402 28.888C144.584 28.6747 144.674 28.3973 144.674 28.056V22.744C144.674 22.4027 144.584 22.1307 144.402 21.928C144.221 21.7147 143.981 21.608 143.682 21.608C143.384 21.608 143.144 21.7147 142.962 21.928C142.792 22.1307 142.706 22.4027 142.706 22.744V28.056C142.706 28.3973 142.792 28.6747 142.962 28.888C143.144 29.0907 143.384 29.192 143.682 29.192ZM157.698 31.128C156.717 31.128 155.933 30.84 155.346 30.264C154.759 29.688 154.466 28.92 154.466 27.96V22.84C154.466 21.88 154.759 21.112 155.346 20.536C155.933 19.96 156.717 19.672 157.698 19.672C158.679 19.672 159.463 19.96 160.05 20.536C160.647 21.112 160.946 21.88 160.946 22.84V27.96C160.946 28.92 160.647 29.688 160.05 30.264C159.463 30.84 158.679 31.128 157.698 31.128ZM157.698 29.192C157.997 29.192 158.237 29.0907 158.418 28.888C158.599 28.6747 158.69 28.3973 158.69 28.056V22.744C158.69 22.4027 158.599 22.1307 158.418 21.928C158.237 21.7147 157.997 21.608 157.698 21.608C157.399 21.608 157.159 21.7147 156.978 21.928C156.807 22.1307 156.722 22.4027 156.722 22.744V28.056C156.722 28.3973 156.807 28.6747 156.978 28.888C157.159 29.0907 157.399 29.192 157.698 29.192ZM169.669 21.544C169.669 21.5973 169.648 21.6453 169.605 21.688C169.573 21.72 169.531 21.736 169.477 21.736H166.149C166.096 21.736 166.069 21.7627 166.069 21.816V24.344C166.069 24.3973 166.096 24.424 166.149 24.424H168.053C168.107 24.424 168.149 24.4453 168.181 24.488C168.224 24.52 168.245 24.5627 168.245 24.616V26.168C168.245 26.2213 168.224 26.2693 168.181 26.312C168.149 26.344 168.107 26.36 168.053 26.36H166.149C166.096 26.36 166.069 26.3867 166.069 26.44V30.808C166.069 30.8613 166.048 30.9093 166.005 30.952C165.973 30.984 165.931 31 165.877 31H164.005C163.952 31 163.904 30.984 163.861 30.952C163.829 30.9093 163.813 30.8613 163.813 30.808V19.992C163.813 19.9387 163.829 19.896 163.861 19.864C163.904 19.8213 163.952 19.8 164.005 19.8H169.477C169.531 19.8 169.573 19.8213 169.605 19.864C169.648 19.896 169.669 19.9387 169.669 19.992V21.544ZM178.029 21.544C178.029 21.5973 178.007 21.6453 177.965 21.688C177.933 21.72 177.89 21.736 177.837 21.736H174.509C174.455 21.736 174.429 21.7627 174.429 21.816V24.344C174.429 24.3973 174.455 24.424 174.509 24.424H176.413C176.466 24.424 176.509 24.4453 176.541 24.488C176.583 24.52 176.605 24.5627 176.605 24.616V26.168C176.605 26.2213 176.583 26.2693 176.541 26.312C176.509 26.344 176.466 26.36 176.413 26.36H174.509C174.455 26.36 174.429 26.3867 174.429 26.44V30.808C174.429 30.8613 174.407 30.9093 174.365 30.952C174.333 30.984 174.29 31 174.237 31H172.365C172.311 31 172.263 30.984 172.221 30.952C172.189 30.9093 172.173 30.8613 172.173 30.808V19.992C172.173 19.9387 172.189 19.896 172.221 19.864C172.263 19.8213 172.311 19.8 172.365 19.8H177.837C177.89 19.8 177.933 19.8213 177.965 19.864C178.007 19.896 178.029 19.9387 178.029 19.992V21.544ZM186.404 21.544C186.404 21.5973 186.383 21.6453 186.34 21.688C186.308 21.72 186.265 21.736 186.212 21.736H182.868C182.815 21.736 182.788 21.7627 182.788 21.816V24.344C182.788 24.3973 182.815 24.424 182.868 24.424H184.788C184.841 24.424 184.884 24.4453 184.916 24.488C184.959 24.52 184.98 24.5627 184.98 24.616V26.168C184.98 26.2213 184.959 26.2693 184.916 26.312C184.884 26.344 184.841 26.36 184.788 26.36H182.868C182.815 26.36 182.788 26.3867 182.788 26.44V28.984C182.788 29.0373 182.815 29.064 182.868 29.064H186.212C186.265 29.064 186.308 29.0853 186.34 29.128C186.383 29.16 186.404 29.2027 186.404 29.256V30.808C186.404 30.8613 186.383 30.9093 186.34 30.952C186.308 30.984 186.265 31 186.212 31H180.724C180.671 31 180.623 30.984 180.58 30.952C180.548 30.9093 180.532 30.8613 180.532 30.808V19.992C180.532 19.9387 180.548 19.896 180.58 19.864C180.623 19.8213 180.671 19.8 180.724 19.8H186.212C186.265 19.8 186.308 19.8213 186.34 19.864C186.383 19.896 186.404 19.9387 186.404 19.992V21.544ZM193.589 31C193.471 31 193.397 30.9467 193.365 30.84L192.133 26.424C192.111 26.3813 192.085 26.36 192.053 26.36H191.509C191.455 26.36 191.429 26.3867 191.429 26.44V30.808C191.429 30.8613 191.407 30.9093 191.365 30.952C191.333 30.984 191.29 31 191.237 31H189.365C189.311 31 189.263 30.984 189.221 30.952C189.189 30.9093 189.173 30.8613 189.173 30.808V19.992C189.173 19.9387 189.189 19.896 189.221 19.864C189.263 19.8213 189.311 19.8 189.365 19.8H192.597C193.183 19.8 193.706 19.944 194.165 20.232C194.623 20.5093 194.975 20.904 195.221 21.416C195.477 21.928 195.605 22.5147 195.605 23.176C195.605 23.8053 195.482 24.36 195.237 24.84C195.002 25.32 194.671 25.6933 194.245 25.96C194.223 25.9707 194.207 25.9867 194.197 26.008C194.186 26.0187 194.186 26.0347 194.197 26.056L195.669 30.776L195.685 30.84C195.685 30.9467 195.626 31 195.509 31H193.589ZM191.509 21.736C191.455 21.736 191.429 21.7627 191.429 21.816V24.552C191.429 24.6053 191.455 24.632 191.509 24.632H192.229C192.559 24.632 192.826 24.504 193.029 24.248C193.242 23.9813 193.349 23.6293 193.349 23.192C193.349 22.744 193.242 22.392 193.029 22.136C192.826 21.8693 192.559 21.736 192.229 21.736H191.509Z" fill="#343434"/>
<path d="M170.703 94.253C173.287 94.253 175.434 96.438 175.434 99.25C175.434 102.081 173.287 104.247 170.703 104.247C169.221 104.247 168.1 103.639 167.378 102.651V107.8H165.326V94.5H167.378V95.868C168.1 94.861 169.221 94.253 170.703 94.253ZM170.38 102.29C172.09 102.29 173.382 101.017 173.382 99.25C173.382 97.483 172.09 96.21 170.38 96.21C168.67 96.21 167.378 97.483 167.378 99.25C167.378 101.017 168.67 102.29 170.38 102.29ZM177.568 104.228C176.77 104.228 176.143 103.582 176.143 102.803C176.143 102.005 176.77 101.378 177.568 101.378C178.347 101.378 178.993 102.005 178.993 102.803C178.993 103.582 178.347 104.228 177.568 104.228ZM190.584 94.5H192.75L189.767 104H187.753L185.777 97.597L183.782 104H181.768L178.785 94.5H180.951L182.794 101.055L184.789 94.5H186.746L188.722 101.055L190.584 94.5ZM193.589 104.228C192.791 104.228 192.164 103.582 192.164 102.803C192.164 102.005 192.791 101.378 193.589 101.378C194.368 101.378 195.014 102.005 195.014 102.803C195.014 103.582 194.368 104.228 193.589 104.228Z" fill="#343434"/>
</g>
<defs>
<clipPath id="clip0_24_493">
<rect width="213" height="209" rx="14" fill="white"/>
</clipPath>
</defs>
</svg>
