<svg width="155" height="86" viewBox="0 0 155 86" fill="none" xmlns="http://www.w3.org/2000/svg">
<g clip-path="url(#clip0_24_449)">
<path d="M54.1242 1.35145H2.37521L0 18.5046H14.3336L8.39554 60.5048H27.5618L33.4959 18.5046H47.1397L54.1242 1.35145Z" fill="#CCFF00"/>
<path d="M73.8627 50.7839L74.7093 60.5009H95.1455L87.6867 1.35145H59.7016L35.6163 60.5009H54.3593L58.0044 50.7839M61.0577 42.9259L70.9779 16.6456L73.1846 42.9259" fill="#CCFF00"/>
<path d="M128.473 16.1417C133.223 16.1417 135.426 20.9573 135.595 25.9446L154.761 21.8048C156.627 8.62357 147.384 0.00404167 130.676 0.00404167C113.038 0.00404167 100.57 11.2442 97.6893 31.4397C94.977 50.8737 103.98 61.7741 116.189 61.7741C127.129 61.7741 135.512 57.1265 139.498 46.7338L137.888 57.9349H150.536L154.267 31.7795H129.01L127.285 43.8008H137.3C135.077 46.2105 132.161 47.4095 128.641 47.4095C122.79 47.4095 116.256 41.5785 117.953 29.4089C119.227 20.8753 123.127 16.1417 128.469 16.1417H128.473Z" fill="#CCFF00"/>
<path d="M9.14412 79.7394C8.70514 81.4969 6.95705 82.7701 5.18936 82.7701H0.627075L3.28057 72.1627H7.50969C9.23035 72.1627 10.316 73.4046 9.89274 75.1035C9.66149 76.0292 9.06181 76.7868 8.27007 77.2711C9.05005 77.7398 9.42632 78.6068 9.14412 79.7433V79.7394ZM7.41563 79.6496C7.62336 78.8177 7.16478 78.1655 6.34169 78.1655H3.5275L2.78279 81.1376H5.59698C6.42008 81.1376 7.20397 80.4854 7.41563 79.6535V79.6496ZM4.62103 73.7991L3.92336 76.5877H6.4044C7.18046 76.5877 7.92516 75.9823 8.12113 75.1934C8.31711 74.4045 7.87813 73.7991 7.10207 73.7991H4.62103Z" fill="#CCFF00"/>
<path d="M10.3983 78.9817C10.9627 76.7243 13.1929 74.9942 15.4113 74.9942C17.6298 74.9942 18.9977 76.7204 18.4293 78.9817C17.8689 81.2235 15.6543 82.9693 13.4163 82.9693C11.1783 82.9693 9.8339 81.2274 10.3983 78.9817ZM16.7871 78.9817C17.132 77.6031 16.352 76.5876 15.0115 76.5876C13.6711 76.5876 12.3855 77.6031 12.0406 78.9817C11.6957 80.3604 12.4756 81.3758 13.8161 81.3758C15.1566 81.3758 16.4422 80.3604 16.7871 78.9817Z" fill="#CCFF00"/>
<path d="M19.4955 78.9817C20.0599 76.7243 22.2901 74.9942 24.5085 74.9942C26.7269 74.9942 28.0909 76.7204 27.5265 78.9817C26.966 81.2235 24.7476 82.9693 22.5135 82.9693C20.2794 82.9693 18.9311 81.2274 19.4955 78.9817ZM25.8842 78.9817C26.2292 77.6031 25.4492 76.5876 24.1087 76.5876C22.7683 76.5876 21.4827 77.6031 21.1378 78.9817C20.7928 80.3604 21.5728 81.3758 22.9133 81.3758C24.2537 81.3758 25.5393 80.3604 25.8842 78.9817Z" fill="#CCFF00"/>
<path d="M32.8295 82.7701L30.5876 79.2708L29.7136 82.7701H28.0713L30.7248 72.1627H32.367L30.7718 78.5443L34.562 75.1934H36.5687L32.2926 78.9075L34.7932 82.7701H32.8295Z" fill="#CCFF00"/>
<path d="M41.6014 75.1934H43.2436L41.3466 82.7701H39.7043L41.6014 75.1934ZM41.9189 73.0102C42.0639 72.4361 42.6518 71.9635 43.2319 71.9635C43.812 71.9635 44.1647 72.4322 44.0197 73.0102C43.8786 73.5726 43.2868 74.0569 42.7067 74.0569C42.1266 74.0569 41.7778 73.5726 41.9189 73.0102Z" fill="#CCFF00"/>
<path d="M47.1122 76.7712L46.2029 80.4073C45.9599 81.3758 46.6027 81.3641 47.8648 81.3016L47.4963 82.7701C44.8938 83.0747 44.0668 82.3757 44.5567 80.4073L45.466 76.7712H44.0668L44.4626 75.1934H45.8619L46.2695 73.5569L48.0333 73.0727L47.5042 75.1934H49.3894L48.9936 76.7712H47.1083H47.1122Z" fill="#CCFF00"/>
<path d="M49.1504 81.8172C49.3111 81.1806 49.9382 80.6807 50.577 80.6807C51.2159 80.6807 51.5922 81.1806 51.4354 81.8172C51.2786 82.4382 50.6358 82.9537 50.0087 82.9537C49.3816 82.9537 48.9975 82.4382 49.1504 81.8172Z" fill="#CCFF00"/>
<path d="M65.3691 79.7394C64.9301 81.4969 63.182 82.7701 61.4143 82.7701H56.8521L59.5055 72.1627H63.7347C65.4553 72.1627 66.541 73.4046 66.1177 75.1035C65.8865 76.0292 65.2868 76.7868 64.495 77.2711C65.275 77.7398 65.6513 78.6068 65.3691 79.7433V79.7394ZM63.6406 79.6496C63.8483 78.8177 63.3898 78.1655 62.5667 78.1655H59.7525L59.0078 81.1376H61.822C62.645 81.1376 63.4329 80.4854 63.6406 79.6535V79.6496ZM60.846 73.7991L60.1483 76.5877H62.6294C63.4054 76.5877 64.1501 75.9823 64.3461 75.1934C64.5421 74.4045 64.1031 73.7991 63.327 73.7991H60.846Z" fill="#CCFF00"/>
<path d="M75.6617 75.1934L73.7646 82.7701H72.1224L72.3967 81.6805C71.6168 82.485 70.5977 82.9693 69.4101 82.9693C67.3406 82.9693 66.0589 81.2274 66.6194 78.9817C67.1838 76.7243 69.3356 74.9942 71.4051 74.9942C72.5927 74.9942 73.3688 75.4785 73.749 76.2674L74.0194 75.1934H75.6617ZM73.0709 78.9817C73.4237 77.5718 72.6437 76.5564 71.2758 76.5564C69.9079 76.5564 68.6184 77.5718 68.2656 78.9817C67.9129 80.3916 68.6928 81.4071 70.0647 81.4071C71.4365 81.4071 72.7221 80.3916 73.0748 78.9817H73.0709Z" fill="#CCFF00"/>
<path d="M85.2449 75.1934L83.4341 82.4225C82.8226 84.8635 80.6238 86 78.6288 86C76.9552 86 75.8185 85.379 75.4814 84.1644L77.1002 83.3442C77.2727 83.9965 77.7077 84.512 79.0286 84.512C80.4435 84.512 81.49 83.7387 81.8193 82.4186L82.0505 81.493C81.2666 82.3093 80.2436 82.8131 79.0717 82.8131C76.9277 82.8131 75.6735 81.0712 76.2144 78.9036C76.7553 76.7361 78.8836 74.9942 81.0275 74.9942C82.1994 74.9942 82.9716 75.4941 83.3439 76.3143L83.6261 75.1934H85.237H85.2449ZM82.7051 78.9075C83.0461 77.5445 82.2661 76.5291 80.8825 76.5291C79.4989 76.5291 78.2094 77.5445 77.8684 78.9075C77.5274 80.2706 78.3074 81.286 79.691 81.286C81.0746 81.286 82.3641 80.2706 82.7051 78.9075Z" fill="#CCFF00"/>
<path d="M90.9634 75.1934H92.6057L90.7087 82.7701H89.0664L90.9634 75.1934ZM91.2809 73.0102C91.4259 72.4361 92.0139 71.9635 92.5939 71.9635C93.174 71.9635 93.5268 72.4322 93.3818 73.0102C93.2407 73.5726 92.6488 74.0569 92.0687 74.0569C91.4886 74.0569 91.1398 73.5726 91.2809 73.0102Z" fill="#CCFF00"/>
<path d="M96.4742 76.7712L95.5648 80.4073C95.3218 81.3758 95.9646 81.3641 97.2267 81.3016L96.8583 82.7701C94.2557 83.0747 93.4287 82.3757 93.9186 80.4073L94.828 76.7712H93.4287L93.8246 75.1934H95.2238L95.6315 73.5569L97.3952 73.0727L96.8661 75.1934H98.7514L98.3555 76.7712H96.4702H96.4742Z" fill="#CCFF00"/>
<path d="M98.5123 81.8172C98.673 81.1806 99.3001 80.6807 99.939 80.6807C100.578 80.6807 100.954 81.1806 100.797 81.8172C100.641 82.4382 99.9978 82.9537 99.3707 82.9537C98.7435 82.9537 98.3594 82.4382 98.5123 81.8172Z" fill="#CCFF00"/>
<path d="M115.374 73.8303H112.375L110.137 82.7701H108.389L110.627 73.8303H107.613L108.029 72.1627H115.789L115.374 73.8303Z" fill="#CCFF00"/>
<path d="M122.515 75.1934L120.618 82.7701H118.976L119.25 81.6805C118.47 82.485 117.451 82.9693 116.264 82.9693C114.194 82.9693 112.912 81.2274 113.473 78.9817C114.037 76.7243 116.189 74.9942 118.259 74.9942C119.446 74.9942 120.222 75.4785 120.602 76.2674L120.873 75.1934H122.515ZM119.924 78.9817C120.277 77.5718 119.497 76.5564 118.129 76.5564C116.761 76.5564 115.472 77.5718 115.119 78.9817C114.766 80.3916 115.546 81.4071 116.918 81.4071C118.29 81.4071 119.576 80.3916 119.928 78.9817H119.924Z" fill="#CCFF00"/>
<path d="M132.098 75.1934L130.288 82.4225C129.676 84.8635 127.477 86 125.482 86C123.809 86 122.672 85.379 122.335 84.1644L123.954 83.3442C124.126 83.9965 124.561 84.512 125.882 84.512C127.297 84.512 128.344 83.7387 128.673 82.4186L128.904 81.493C128.12 82.3093 127.097 82.8131 125.925 82.8131C123.781 82.8131 122.527 81.0712 123.068 78.9036C123.609 76.7361 125.737 74.9942 127.881 74.9942C129.053 74.9942 129.825 75.4941 130.197 76.3143L130.48 75.1934H132.091H132.098ZM129.559 78.9075C129.9 77.5445 129.12 76.5291 127.736 76.5291C126.352 76.5291 125.063 77.5445 124.722 78.9075C124.381 80.2706 125.161 81.286 126.544 81.286C127.928 81.286 129.218 80.2706 129.559 78.9075Z" fill="#CCFF00"/>
<path d="M137.817 75.1934H139.459L137.562 82.7701H135.92L137.817 75.1934ZM138.134 73.0102C138.279 72.4361 138.867 71.9635 139.447 71.9635C140.028 71.9635 140.38 72.4322 140.235 73.0102C140.094 73.5726 139.502 74.0569 138.922 74.0569C138.342 74.0569 137.993 73.5726 138.134 73.0102Z" fill="#CCFF00"/>
<path d="M143.328 76.7712L142.418 80.4073C142.175 81.3758 142.818 81.3641 144.08 81.3016L143.712 82.7701C141.109 83.0747 140.282 82.3757 140.772 80.4073L141.681 76.7712H140.282L140.678 75.1934H142.077L142.485 73.5569L144.249 73.0727L143.72 75.1934H145.605L145.209 76.7712H143.324H143.328Z" fill="#CCFF00"/>
<path d="M145.366 81.8172C145.527 81.1806 146.154 80.6807 146.792 80.6807C147.431 80.6807 147.808 81.1806 147.651 81.8172C147.494 82.4382 146.851 82.9537 146.224 82.9537C145.597 82.9537 145.213 82.4382 145.366 81.8172Z" fill="#CCFF00"/>
</g>
<defs>
<clipPath id="clip0_24_449">
<rect width="155" height="86" fill="white"/>
</clipPath>
</defs>
</svg>
